<svg width="45" height="45" viewBox="0 0 45 45" fill="none" xmlns="http://www.w3.org/2000/svg">
<rect width="45" height="45" rx="5" fill="#27272A"/>
<g clip-path="url(#clip0_7559_512)">
<path d="M16.75 39.9997C19.924 39.9997 22.5 37.3863 22.5 34.1663V28.333H16.75C13.576 28.333 11 30.9463 11 34.1663C11 37.3863 13.576 39.9997 16.75 39.9997Z" fill="#0ACF83"/>
<path d="M11 22.5003C11 19.2803 13.576 16.667 16.75 16.667H22.5V28.3337H16.75C13.576 28.3337 11 25.7203 11 22.5003Z" fill="#A259FF"/>
<path d="M11 10.8333C11 7.61333 13.576 5 16.75 5H22.5V16.6667H16.75C13.576 16.6667 11 14.0533 11 10.8333Z" fill="#F24E1E"/>
<path d="M22.5 5H28.25C31.424 5 34 7.61333 34 10.8333C34 14.0533 31.424 16.6667 28.25 16.6667H22.5V5Z" fill="#FF7262"/>
<path d="M34 22.5003C34 25.7203 31.424 28.3337 28.25 28.3337C25.076 28.3337 22.5 25.7203 22.5 22.5003C22.5 19.2803 25.076 16.667 28.25 16.667C31.424 16.667 34 19.2803 34 22.5003Z" fill="#1ABCFE"/>
</g>
<defs>
<clipPath id="clip0_7559_512">
<rect width="23" height="35" fill="white" transform="translate(11 5)"/>
</clipPath>
</defs>
</svg>
